<svg xmlns="http://www.w3.org/2000/svg" viewBox="0 0 425.1 344.65"><defs><style>.cls-1{fill:#ada9ea;}.cls-2{fill:none;stroke:#fff;stroke-miterlimit:10;stroke-width:3px;}.cls-3{fill:#fff;}.cls-4{fill:#373f54;}</style></defs><g id="Layer_2" data-name="Layer 2"><g id="Layer_1-2" data-name="Layer 1"><path class="cls-1" d="M402.52,86.81v177.7H158V155.26a27.09,27.09,0,0,0-27.09-27.09H112.47V86.81Z"/><path class="cls-1" d="M48.87,184.85h81.47a0,0,0,0,1,0,0V311a0,0,0,0,1,0,0H67.91a19,19,0,0,1-19-19V184.85A0,0,0,0,1,48.87,184.85Z"/><path class="cls-2" d="M74.26,295.71a11.09,11.09,0,0,1,14.87-8.9"/><path class="cls-2" d="M394.33,11.88H85.24C68.55,11.88,56,24.47,56,41.15v90.91c0,6.53,4.56,11.09,11.09,11.09s11.1-4.56,11.1-11.09V41.15c0-4.37,2.71-7.09,7.09-7.09H394.33c4.37,0,7.09,2.72,7.09,7.09V259.34c0,4.37-2.72,7.09-7.09,7.09H176.14c-6.52,0-11.09,4.56-11.09,11.09s4.57,11.09,11.09,11.09h16.19v25.27c0,4.37-2.72,7.09-7.09,7.09h-9.09c-6.53,0-11.1,4.56-11.1,11.09s4.57,11.09,11.1,11.09H303.42c6.53,0,11.09-4.56,11.09-11.09S310,321,303.42,321h-9.09c-4.38,0-7.09-2.72-7.09-7.09V288.61H394.33c16.69,0,29.27-12.59,29.27-29.27V41.15C423.6,24.47,411,11.88,394.33,11.88ZM258,288.61h7.09v25.27a24.29,24.29,0,0,0,1.08,7.09H213.43a24.29,24.29,0,0,0,1.08-7.09v-4.79"/><path class="cls-2" d="M121.6,157.34H48.87c-16.69,0-29.27,12.58-29.27,29.27V313.88c0,16.69,12.58,29.27,29.27,29.27H121.6c16.69,0,29.27-12.58,29.27-29.27V186.61C150.87,169.92,138.29,157.34,121.6,157.34Zm0,22.18c4.38,0,7.09,2.71,7.09,7.09V313.88c0,4.37-2.71,7.09-7.09,7.09H48.87c-4.37,0-7.08-2.72-7.08-7.09v-4.79"/><circle class="cls-3" cx="235.58" cy="236.32" r="11.09"/><circle class="cls-3" cx="81.04" cy="288.04" r="11.09"/><path class="cls-3" d="M383,202.89c0-6.53-4.56-11.09-11.09-11.09H172c-6.53,0-11.09,4.56-11.09,11.09S165.42,214,172,214H372C378.48,214,383,209.42,383,202.89Z"/><circle class="cls-4" cx="232.69" cy="233.6" r="11.09"/><circle class="cls-4" cx="78.15" cy="285.32" r="11.09"/><path class="cls-4" d="M387.24,0H78.15C61.46,0,48.87,12.58,48.87,29.27v90.91c0,6.53,4.56,11.09,11.09,11.09s11.09-4.56,11.09-11.09V29.27c0-4.37,2.72-7.09,7.09-7.09H387.23c4.38,0,7.1,2.72,7.1,7.09V247.45c0,4.38-2.72,7.1-7.1,7.1H169.05c-6.53,0-11.09,4.56-11.09,11.09s4.56,11.09,11.09,11.09h16.19V302c0,4.37-2.72,7.09-7.09,7.09h-9.1c-6.53,0-11.09,4.56-11.09,11.09s4.56,11.09,11.09,11.09H296.33c6.53,0,11.09-4.56,11.09-11.09s-4.56-11.09-11.09-11.09h-9.09c-4.38,0-7.09-2.72-7.09-7.09V276.73H387.24c16.68,0,29.27-12.59,29.27-29.28V29.27C416.51,12.58,403.92,0,387.24,0ZM259,309.09h-52.7a24.63,24.63,0,0,0,1.08-7.09V276.73H258V302A24.69,24.69,0,0,0,259,309.09Z"/><path class="cls-4" d="M380.14,200.17c0-6.53-4.56-11.09-11.09-11.09h-200c-6.53,0-11.09,4.56-11.09,11.09s4.56,11.09,11.09,11.09h200C375.58,211.26,380.14,206.7,380.14,200.17Z"/><path class="cls-4" d="M114.51,145.45H41.78c-16.69,0-29.27,12.59-29.27,29.28V302c0,16.69,12.58,29.27,29.27,29.27h72.73c16.69,0,29.27-12.58,29.27-29.27V174.73C143.78,158,131.2,145.45,114.51,145.45ZM34.69,174.73c0-4.38,2.72-7.09,7.09-7.09h72.73c4.37,0,7.09,2.71,7.09,7.09V302c0,4.37-2.72,7.09-7.09,7.09H41.78c-4.37,0-7.09-2.72-7.09-7.09Z"/><circle class="cls-1" cx="338.83" cy="315.66" r="10.87"/><circle class="cls-1" cx="360.43" cy="311.28" r="4.38"/><circle class="cls-1" cx="27.72" cy="129.2" r="6.5"/><circle class="cls-1" cx="18" cy="98.39" r="18"/></g></g></svg>